<?xml version="1.0" encoding="utf-8"?>
<svg version="1.1" id="Layer_1" xmlns="http://www.w3.org/2000/svg" viewBox="0 0 2000 2000">
<path class="st0" fill="#abc4ff" d="M1147.3,852.7c0-109.1-59.3-204.3-147.3-255.3c-88.1,51-147.3,146.2-147.3,255.3
	c-109.1,0-204.3,59.3-255.3,147.3c51,88.1,146.2,147.3,255.3,147.3c0,109.1,59.3,204.3,147.3,255.3c88.1-51,147.3-146.2,147.3-255.3
	c109.1,0,204.3-59.3,255.3-147.3C1351.7,911.9,1256.4,852.7,1147.3,852.7z M1000,1107.9c-44.7-25.9-82-63.2-107.9-107.9
	c25.9-44.7,63.2-82,107.9-107.9c44.7,25.9,82,63.2,107.9,107.9C1082,1044.7,1044.7,1082,1000,1107.9z"/>
</svg>
